<?xml version="1.0" encoding="UTF-8" standalone="no"?>
<!-- Created with Inkscape (http://www.inkscape.org/) -->

<svg
   width="85mm"
   height="22mm"
   viewBox="0 0 85 22"
   version="1.1"
   id="svg5"
   inkscape:version="1.2.2 (b0a8486541, 2022-12-01)"
   sodipodi:docname="logo.svg"
   inkscape:export-filename="logo.png"
   inkscape:export-xdpi="254"
   inkscape:export-ydpi="254"
   xmlns:inkscape="http://www.inkscape.org/namespaces/inkscape"
   xmlns:sodipodi="http://sodipodi.sourceforge.net/DTD/sodipodi-0.dtd"
   xmlns:xlink="http://www.w3.org/1999/xlink"
   xmlns="http://www.w3.org/2000/svg"
   xmlns:svg="http://www.w3.org/2000/svg">
  <sodipodi:namedview
     id="namedview7"
     pagecolor="#c6c6c6"
     bordercolor="#eeeeee"
     borderopacity="1"
     inkscape:showpageshadow="0"
     inkscape:pageopacity="0"
     inkscape:pagecheckerboard="true"
     inkscape:deskcolor="#505050"
     inkscape:document-units="mm"
     showgrid="false"
     inkscape:zoom="4"
     inkscape:cx="167.5"
     inkscape:cy="41.75"
     inkscape:window-width="2560"
     inkscape:window-height="1411"
     inkscape:window-x="1920"
     inkscape:window-y="0"
     inkscape:window-maximized="1"
     inkscape:current-layer="layer1" />
  <defs
     id="defs2">
    <clipPath
       clipPathUnits="userSpaceOnUse"
       id="clipPath116339">
      <use
         x="0"
         y="0"
         xlink:href="#g116335"
         id="use116341" />
    </clipPath>
    <clipPath
       clipPathUnits="userSpaceOnUse"
       id="clipPath14049">
      <path
         sodipodi:type="star"
         style="fill:#29bdf3;fill-opacity:1;stroke:none;stroke-width:0.499999;stroke-dasharray:none;stroke-opacity:1"
         id="path14051"
         inkscape:flatsided="false"
         sodipodi:sides="3"
         sodipodi:cx="57.184326"
         sodipodi:cy="69.008553"
         sodipodi:r1="15.454809"
         sodipodi:r2="7.7274046"
         sodipodi:arg1="-0.57582147"
         sodipodi:arg2="0.47137608"
         inkscape:rounded="0"
         inkscape:randomized="0"
         d="M 70.146974,60.593038 64.069013,72.517665 57.991051,84.442292 50.703002,73.21631 43.414953,61.990327 56.780964,61.291683 Z"
         inkscape:transform-center-x="0.35473653"
         inkscape:transform-center-y="2.2739873"
         transform="matrix(0.12446752,0.1644029,-0.34528892,0.82555255,79.064321,-9.6800892)" />
    </clipPath>
  </defs>
  <g
     inkscape:label="Calque 1"
     inkscape:groupmode="layer"
     id="layer1">
    <path
       style="fill:#f6fcfe;fill-opacity:1;stroke:#0b8bb8;stroke-width:0.50551;stroke-dasharray:none;stroke-opacity:1"
       d="M 11.93699,20.451112 C 8.2747899,18.85575 6.2981689,17.899461 5.2524539,16.02417 4.8618369,15.323673 3.4636249,12.347636 3.4226899,9.5584353 c -0.03673,-2.5023835 -0.03921,-5.3962795 -0.03754,-7.9315255 4.653711,-0.167174 9.1075351,-0.142058 12.4870581,-0.03399 1.535417,2.518032 3.350956,2.363642 5.133293,2.391758 -0.08168,6.2135072 -0.506194,9.7025362 -2.366078,12.2397002 -1.143044,1.559286 -3.109371,2.666166 -6.702437,4.226733 z"
       id="path9247-3"
       sodipodi:nodetypes="csscccscc" />
    <path
       style="fill:none;fill-opacity:1;stroke:#29bdf3;stroke-width:0.50551;stroke-dasharray:none;stroke-opacity:1"
       d="m 57.126494,70.317371 c -3.6622,-1.595362 -5.638821,-2.551652 -6.684536,-4.426942 -0.390617,-0.700497 -1.788829,-3.676535 -1.829764,-6.465736 -0.03673,-2.502383 -0.03921,-5.396279 -0.03754,-7.931525 4.653711,-0.167174 9.107535,-0.142059 12.487058,-0.03399 1.535417,2.518031 3.350956,2.363641 5.133293,2.391757 -0.08168,6.213509 -0.506194,9.702538 -2.366078,12.239702 -1.143044,1.559286 -3.109371,2.666166 -6.702437,4.226733 z"
       id="path9247-3-5-3"
       sodipodi:nodetypes="csscccscc"
       clip-path="url(#clipPath14049)"
       transform="translate(-45.190962,-49.866451)" />
    <path
       id="path11455"
       style="fill:#29bdf3;fill-opacity:1;stroke:#0b8bb8;stroke-width:0.5;stroke-dasharray:none;stroke-opacity:1"
       d="m 7.9683749,5.5962658 c -1.329967,8.9e-5 -2.462675,0.903152 -2.671902,2.130206 1.889453,-0.294406 3.680484,-0.320974 5.3438061,0 -0.209228,-1.227054 -1.3419351,-2.130117 -2.6719041,-2.130206 z"
       sodipodi:nodetypes="cccc" />
    <path
       id="path11455-3"
       style="fill:#29bdf3;fill-opacity:1;stroke:#0b8bb8;stroke-width:0.5;stroke-dasharray:none;stroke-opacity:1"
       d="m 11.872308,17.00511 c -2.1032467,-1.54e-4 -3.8945411,-1.577471 -4.2254181,-3.720675 3.4362791,-0.342425 5.6442461,-0.378759 8.4508331,0 -0.330877,2.143204 -2.12217,3.72052 -4.225415,3.720675 z"
       sodipodi:nodetypes="cccc" />
    <g
       id="g116337"
       clip-path="url(#clipPath116339)"
       transform="matrix(1,-0.01880034,0,1.0381639,-45.183256,-51.357183)">
      <g
         inkscape:label="Clip"
         id="g116335">
        <path
           style="opacity:1;fill:#0b8bb8;fill-opacity:1;stroke:none;stroke-width:0.23855;stroke-opacity:1"
           d="m 57.12484,69.134724 0.01246,-16.434758 3.555413,0.139885 c 1.269544,2.240476 4.13599,2.341986 4.697112,2.353302 -0.03036,3.936512 -0.442307,8.207819 -2.014468,10.407741 -1.572161,2.199922 -5.259922,3.409597 -6.241773,3.856195 z"
           id="path12486-5"
           sodipodi:nodetypes="ccccscc" />
      </g>
      <path
         sodipodi:type="star"
         style="fill:#29bdf3;fill-opacity:1;stroke:none;stroke-width:0.499999;stroke-dasharray:none;stroke-opacity:1"
         id="path108749-6"
         inkscape:flatsided="false"
         sodipodi:sides="3"
         sodipodi:cx="57.184326"
         sodipodi:cy="69.008553"
         sodipodi:r1="15.454809"
         sodipodi:r2="7.7274046"
         sodipodi:arg1="-0.57582147"
         sodipodi:arg2="0.47137608"
         inkscape:rounded="0"
         inkscape:randomized="0"
         d="M 70.146974,60.593038 64.069013,72.517665 57.991051,84.442292 50.703002,73.21631 43.414953,61.990327 56.780964,61.291683 Z"
         inkscape:transform-center-x="0.35473653"
         inkscape:transform-center-y="2.2739873"
         transform="matrix(0.12446752,0.1606133,-0.34528892,0.78895153,79.064321,-6.4573697)" />
    </g>
    <text
       xml:space="preserve"
       style="font-style:normal;font-variant:normal;font-weight:normal;font-stretch:normal;font-size:24.6944px;font-family:'Goudy Bookletter 1911';-inkscape-font-specification:'Goudy Bookletter 1911, Normal';font-variant-ligatures:normal;font-variant-caps:normal;font-variant-numeric:normal;font-variant-east-asian:normal;fill:#29bdf3;fill-opacity:1;stroke:#0b8bb8;stroke-width:0.337141;stroke-dasharray:none;stroke-opacity:1"
       x="26.028536"
       y="19.211246"
       id="text17781"><tspan
         sodipodi:role="line"
         id="tspan17779"
         style="font-style:normal;font-variant:normal;font-weight:normal;font-stretch:normal;font-size:24.6944px;font-family:'Goudy Bookletter 1911';-inkscape-font-specification:'Goudy Bookletter 1911, Normal';font-variant-ligatures:normal;font-variant-caps:normal;font-variant-numeric:normal;font-variant-east-asian:normal;fill:#29bdf3;fill-opacity:1;stroke:#0b8bb8;stroke-width:0.337141;stroke-dasharray:none;stroke-opacity:1"
         x="26.028536"
         y="19.211246">Fos-R</tspan></text>
  </g>
</svg>
